<?xml version="1.0" encoding="utf-8"?>
<!-- Generator: Adobe Illustrator 21.0.0, SVG Export Plug-In . SVG Version: 6.00 Build 0)  -->
<svg version="1.1" id="Layer_1" xmlns="http://www.w3.org/2000/svg" xmlns:xlink="http://www.w3.org/1999/xlink" x="0px" y="0px"
	 viewBox="0 0 222.7 142.3" style="enable-background:new 0 0 222.7 142.3;" xml:space="preserve">
<style type="text/css">
	.st0{fill:#FFFFFF;}
	.st1{fill:#FAA41A;}
</style>
<g>
	<path class="st0" d="M22.4,122.6c-2.7,0.2-5.4,0.7-8,0.6C4.6,123,0.9,114.7,1,108.6c0.1-4.1,2.9-7.4,7.5-8.9
		c4.6-1.6,9.3-1.8,14.1-1.4c1.2,0.1,1.9-0.2,2.6-1.2c3.1-4.5,6.3-9,9.3-13.5c0.5-0.8,0.9-1.7,1-2.7c1.8-16.6,5.1-32.9,11.4-48.4
		C50,24.6,54,17.3,59.8,11.2c4.4-4.7,9.7-8.1,16.1-9.5c5.4-1.2,10.7-0.7,15.9,1c9.9,3.3,18.5,8.6,25.4,16.4
		c8.9,10.2,10.1,21.6,4.3,33.6c-4,8.2-10.1,14.8-17.1,20.5c-10.7,8.7-22.7,14.9-36,18.7c-4.9,1.4-9.9,2.3-15,2.4
		c-0.5,0-1.2,0.4-1.5,0.8c-3.4,4.2-6.8,8.5-10.2,12.7c-0.5,0.6-0.5,1.1-0.1,1.7c2.3,4,4.1,8.3,4.6,13c0.9,8.4-6.9,15.1-15,12.8
		c-4.1-1.2-6.2-4.3-7.5-8.1C23,125.7,22.7,124,22.4,122.6z M60.4,88.3c0-0.1,0-0.1,0-0.2c1.1-0.2,2.2-0.3,3.3-0.6
		c1.1-0.2,2.2-0.5,3.2-0.8C81.2,82.6,94,75.6,105,65.5c5.3-4.8,9.7-10.3,12.5-17c3.8-9.3,2.7-17.9-3.9-25.5
		c-6.7-7.7-15.1-12.9-25-15.7C83.8,6,78.9,6,74.2,7.7C70,9.2,66.5,11.8,63.5,15c-4.7,5-8,10.9-10.7,17.1c-6.7,15.6-10,32-11.8,48.7
		c0,0.4,0.3,1.1,0.7,1.3c2.6,1.9,5.3,3.7,7.9,5.7c1.1,0.8,2.2,1.2,3.6,1.1C55.6,88.7,58,88.5,60.4,88.3z M38.3,86.8
		c-0.2,0.5-0.3,1-0.5,1.4c-3.2,4.6-6.4,9.1-9.5,13.8c-1,1.5-2.1,2-3.9,1.8c-2.8-0.2-5.7-0.4-8.5-0.1c-2.3,0.2-4.6,0.9-6.8,1.6
		c-1.5,0.5-2.5,1.7-2.6,3.4c-0.4,4.6,3.1,8.9,7.7,9.2c3.1,0.3,6-0.5,8.9-1.5c3-1.1,4.3-0.1,4.5,3c0.2,2.8,0.7,5.5,2,8
		c0.8,1.5,1.9,2.7,3.7,2.9c4.1,0.5,7.4-2.3,7.5-6.4c0-0.7-0.1-1.4-0.2-2.1c-0.7-4.1-2.5-7.8-4.7-11.3c-1.2-1.9-1.2-2.7,0.3-4.4
		c1.2-1.5,2.3-2.9,3.5-4.4c2.2-2.8,4.4-5.5,6.7-8.4C43.8,91.2,41.2,89.2,38.3,86.8z"/>
	<path class="st1" d="M60.4,88.3c-2.4,0.2-4.8,0.3-7.2,0.6c-1.4,0.1-2.5-0.2-3.6-1.1c-2.6-1.9-5.3-3.8-7.9-5.7
		c-0.4-0.3-0.8-0.9-0.7-1.3c1.9-16.7,5.2-33.1,11.8-48.7c2.7-6.3,6-12.1,10.7-17.1c3-3.2,6.5-5.8,10.7-7.3C78.9,6,83.8,6,88.5,7.3
		c9.8,2.8,18.3,8,25,15.7c6.6,7.6,7.8,16.2,3.9,25.5c-2.8,6.7-7.2,12.1-12.5,17C94,75.6,81.2,82.6,66.9,86.7
		c-1.1,0.3-2.2,0.6-3.2,0.8c-1.1,0.2-2.2,0.4-3.3,0.6C60.3,88.2,60.3,88.3,60.4,88.3z M82.9,12.1c-1.6,0.4-3.2,0.8-4.7,1.4
		C68,17.4,61.9,25.4,57,34.5c-0.6,1-0.1,2.1,0.8,2.6c1,0.5,2,0.2,2.7-0.8c0.2-0.3,0.3-0.6,0.5-0.9c2-3,3.9-6.2,6.2-9
		c4.4-5.5,10-9.4,17.2-10.3c3.7-0.5,7.4-0.1,11,0.9c1.5,0.4,2.6-0.1,3-1.2c0.4-1.2-0.4-2.2-1.9-2.7C91.9,11.9,87.5,11.5,82.9,12.1z
		 M51.4,57.7c0.2-0.3,0.9-0.8,1.1-1.5c0.5-1.3,0.8-2.6,1.3-3.9c0.7-2,1.4-3.9,2.1-5.9c0.4-1.1,0-2-1.1-2.6c-1-0.5-2.2-0.1-2.5,1
		c-1.3,3.5-2.5,7-3.6,10.6C48.2,56.9,49.5,58,51.4,57.7z M58.2,40.1c-0.1-1.1-1.1-1.8-2.2-1.7c-1.2,0.1-2.1,1.4-1.9,2.6
		c0.1,1.1,1.1,1.8,2.2,1.7S58.4,41.4,58.2,40.1z"/>
	<path class="st1" d="M38.3,86.8c2.9,2.3,5.4,4.4,8,6.5c-2.3,2.8-4.5,5.6-6.7,8.4c-1.2,1.5-2.4,2.9-3.5,4.4
		c-1.4,1.8-1.4,2.5-0.3,4.4c2.1,3.5,4,7.2,4.7,11.3c0.1,0.7,0.2,1.4,0.2,2.1c-0.1,4.1-3.4,6.9-7.5,6.4c-1.8-0.2-2.9-1.4-3.7-2.9
		c-1.3-2.5-1.9-5.2-2-8c-0.2-3.2-1.5-4.1-4.5-3c-2.9,1-5.8,1.8-8.9,1.5c-4.6-0.4-8.2-4.6-7.7-9.2c0.2-1.7,1.2-2.9,2.6-3.4
		c2.2-0.7,4.5-1.4,6.8-1.6c2.8-0.2,5.7-0.1,8.5,0.1c1.8,0.1,2.9-0.4,3.9-1.8c3.1-4.6,6.3-9.2,9.5-13.8C38,87.8,38.1,87.4,38.3,86.8z
		 M10.6,112.2c0.4,0.9,0.7,1.9,1.3,2.7c0.6,0.9,1.6,1.2,2.6,0.6s1.2-1.5,0.8-2.5c-0.9-2.3-0.9-2.3,1.6-2.9c0.1,0,0.3,0,0.4-0.1
		c1.1-0.4,1.6-1.1,1.4-2.3c-0.2-1.1-1-1.7-2.1-1.6c-0.8,0.1-1.6,0.2-2.3,0.5C11.5,107.5,10.3,109.5,10.6,112.2z"/>
	<path class="st0" d="M82.9,12.1c4.5-0.6,9-0.2,13.4,1c1.6,0.4,2.3,1.4,1.9,2.7c-0.3,1.1-1.5,1.6-3,1.2c-3.6-1-7.2-1.4-11-0.9
		C77,17.1,71.5,21,67,26.4c-2.3,2.8-4.1,6-6.2,9c-0.2,0.3-0.3,0.6-0.5,0.9c-0.7,1-1.7,1.3-2.7,0.8s-1.4-1.6-0.8-2.6
		c4.9-9.2,11.1-17.2,21.2-21C79.7,12.9,81.3,12.6,82.9,12.1z"/>
	<path class="st0" d="M51.4,57.7c-1.9,0.3-3.1-0.8-2.7-2.3c1.1-3.6,2.3-7.1,3.6-10.6c0.4-1.1,1.6-1.5,2.5-1c1.1,0.5,1.4,1.5,1.1,2.6
		c-0.6,2-1.4,3.9-2.1,5.9c-0.4,1.3-0.7,2.7-1.3,3.9C52.2,56.9,51.6,57.4,51.4,57.7z"/>
	<path class="st0" d="M58.2,40.1c0.2,1.2-0.8,2.5-1.9,2.6c-1.1,0.1-2-0.6-2.2-1.7c-0.2-1.2,0.8-2.5,1.9-2.6
		C57.1,38.3,58.1,39.1,58.2,40.1z"/>
	<path class="st0" d="M10.6,112.2c-0.3-2.7,0.9-4.7,3.6-5.6c0.8-0.3,1.6-0.4,2.3-0.5c1.1-0.1,1.9,0.5,2.1,1.6s-0.3,1.9-1.4,2.3
		c-0.1,0-0.3,0.1-0.4,0.1c-2.5,0.5-2.5,0.5-1.6,2.9c0.4,1.1,0.2,1.9-0.8,2.5s-2,0.3-2.6-0.6C11.3,114.1,11,113.1,10.6,112.2z"/>
</g>
<g>
	<path d="M81.5,85.5c0.7,0,1.1,0.8,1.1,2.4c0,3.3-1.5,6.5-4.6,9.6s-6.8,4.7-11.3,4.7c-3.1,0-6.7-1.2-10.9-3.7
		c-2.9,3.1-6.6,4.7-11,4.7c-2.9,0-5-0.7-6.4-2.2c-1.4-1.4-2-3.4-2-5.7c0-2.4,0.9-4.2,2.6-5.4c1.8-1.2,4-1.8,6.7-1.8
		c1.4,0,2.8,0.1,4.1,0.2c0-5.7,0.6-11.2,1.9-16.7c-1.5-0.8-2.9-1.7-4-2.7s-1.6-1.8-1.6-2.3c0-1.5,0.3-2.2,1-2.2
		c0.9,0,1.9,0.3,2.9,0.8s2.1,0.9,3.3,1.2c2.9-8.4,6.9-13.7,11.9-16.2c1.8-0.8,3.6-1.3,5.6-1.3c7.4,0,11.1,3.1,11.1,9.3
		c0,3.5-1.3,6.6-4,9.2c-3.7,3.5-9.3,5.4-16.8,5.6c-0.5,3.9-0.8,8.6-0.8,13.9c0,1.3-0.2,2.8-0.5,4.4c1.6,0.8,3.2,1.6,4.8,2.3
		c1.5,0.7,3.4,1,5.7,1c1.2,0,2.3-0.5,3.5-1.5c1.1-1,2.2-2.1,3.2-3.2c1-1.2,1.9-2.2,2.7-3.2C80.4,86,81,85.5,81.5,85.5z M43.2,95.8
		c0,1.3,1,2,2.7,2c1.8,0,2.9-1,3.4-3.1c-1.3-0.7-2.4-1-3.2-1C44.2,93.7,43.3,94.4,43.2,95.8z M70.6,56c-3.9,0-6.8,3.7-8.5,11.2
		c3.4-0.3,6.2-1.2,8.5-2.8c2.3-1.6,3.5-3.2,3.5-4.9C74,57.1,72.9,56,70.6,56z"/>
	<path d="M101.1,72.5c0-3.1,2.4-4.7,7.3-4.7c1.2,0,2,0.4,2.3,1.2c0.3,0.8,0.5,2,0.5,3.6c0,2.3-0.5,5.8-1.5,10.6
		c-1,4.8-1.5,8-1.5,9.7c0,0.8,0.3,1.2,0.8,1.2c0.7,0,1.6-0.4,2.6-1.3s2.1-1.9,3.1-2.9s2-2,2.8-2.9c0.9-0.9,1.5-1.3,1.8-1.3
		c0.7,0,1,0.8,1,2.4c0,3.3-1.6,6.4-4.8,9.5c-5.4,3.2-8.8,4.8-10.3,4.8c-0.1,0-0.3,0-0.4-0.1c-1.8,0-3-0.6-3.7-1.8
		c-0.7-1.2-1.2-2.6-1.4-4.4c-0.9,1.7-2.2,3.2-3.9,4.4c-1.6,1.2-3.5,1.9-5.6,1.9c-3.7,0-6.5-0.7-8.5-2.1s-3-3.5-3-6.2
		c0-1.2,0.2-2.3,0.5-3.4c0.4-1,0.9-2.3,1.7-3.8l2-17.2c1.4-1.1,3.5-1.7,6.2-1.7c2.1,0,3.4,1.4,3.6,4.2c0.2,2.3,0.1,4.3-0.3,6.1
		c-0.4,1.8-1,4.1-1.8,6.8c-0.7,2.7-1.1,5.1-1.1,7.2c0,1.7,1.1,2.5,3.2,2.5c2.3,0,4.3-2,5.9-6c1.3-3.1,2.2-6.5,2.7-10.3
		c0-0.4-0.1-0.9-0.1-1.4c0-0.6,0-1.2-0.1-1.7c0-0.6,0-1.1,0-1.7C101.1,73.7,101.1,72.5,101.1,72.5z"/>
	<path d="M125.9,67.1c1.7,0,3.3,1.6,4.8,4.8c2.2-2.3,4.9-3.4,8.2-3.4c3.2,0,5.7,0.7,7.3,2.1s2.4,3.4,2.4,6s-0.3,5.2-1,7.9
		c-0.7,2.7-1.2,4.6-1.5,5.7s-0.5,2.1-0.5,2.8c0,0.7,0.3,1.1,0.8,1.1c0.7,0,1.6-0.4,2.6-1.3s2.1-1.9,3.1-2.9s2-2,2.8-2.9
		c0.9-0.9,1.5-1.3,1.8-1.3c0.7,0,1,0.8,1,2.4c0,3.3-1.6,6.4-4.8,9.5c-5.4,3.2-8.9,4.8-10.4,4.8c-0.1,0-0.2,0-0.3-0.1
		c-3.7,0-5.6-3-5.6-9c0-2.6,0.2-4.9,0.7-7.1c0.5-2.1,0.9-3.7,1.1-4.7c0.2-1,0.4-2,0.4-3c0-1.7-1-2.5-2.9-2.5s-3.8,1.4-5.5,4.3
		c-1.8,2.9-2.9,5.8-3.5,8.9v0.5c0,1.6,0.2,3.2,0.7,4.9c0.5,1.7,0.7,2.8,0.7,3.5c0,1.6-2,3.1-6,4.7c-0.6,0.2-1.1,0.4-1.6,0.4
		c-1.2,0-2-0.6-2.4-1.8c-0.4-1.2-0.7-3.1-0.7-5.7c0-6.6,0.3-11.4,0.8-14.4c0.7-4.4,2.3-8.5,4.8-12.3C124,67.8,124.9,67.1,125.9,67.1
		z"/>
	<path d="M182,85.5c0.8,0,1.3,0.7,1.3,2.1s-0.4,3-1.1,4.6c-0.7,1.6-1.8,3.2-3.3,4.7s-3.3,2.8-5.6,3.9s-5,1.6-8.1,1.6
		s-5.8-0.9-8.2-2.8c-2.3-1.8-3.5-4.5-3.5-8s0.5-6.6,1.6-9.4s2.5-5.3,4.3-7.3c1.8-2.1,3.8-3.7,6.1-4.8c2.3-1.1,4.5-1.7,6.5-1.7
		c3.6,0,5.4,1.4,5.4,4.3c0,1.6-0.3,2.9-1,3.9s-1.4,1.5-2.1,1.5c-0.9,0-1.8-0.3-2.5-1s-1.5-1-2.3-1s-1.6,0.4-2.4,1.2
		s-1.4,1.9-1.9,3.2c-1,2.6-1.5,5.7-1.5,9.2c0,1.7,0.8,2.9,2.3,3.8c1,0.6,2.2,0.9,3.6,0.9c1.4,0,2.7-0.4,4-1.4c1.3-0.9,2.5-1.9,3.5-3
		c1.1-1.1,2-2.1,2.8-3C180.9,86,181.6,85.5,182,85.5z"/>
	<path d="M203,78.5c0-1.7-1-2.5-3-2.5s-3.9,1.5-5.8,4.6c-1.9,3.1-3.1,6.2-3.6,9.3c0.1,1.1,0.2,2.1,0.3,3.2s0.1,2.1,0.1,3.1
		c0,2.5-0.8,4.2-2.4,5c-0.7,0.4-1.5,0.8-2.1,1.2c-0.7,0.4-1.5,0.6-2.3,0.6c-0.9,0-1.7-0.6-2.3-1.8c-0.7-1.2-1-3-1-5.6
		c0-7,0.5-13.2,1.5-18.3c1.6-8,4.7-16.6,9.5-25.8c0.7-1.3,1.6-1.9,2.9-1.9c1.3,0,2.3,0.9,3.1,2.6c0.8,1.7,1.2,3.2,1.2,4.3
		c0,1.2-0.2,2.3-0.6,3.4c-0.4,1.1-0.8,2.2-1.3,3.2c-0.5,1-1.1,2.1-1.8,3.2s-1.3,2.3-2,3.5l-1,5c1.8-3,4.3-5.1,7.3-6.1
		c1.1-0.4,2.4-0.6,3.7-0.6c3.2,0,5.6,0.7,7.2,2.1c1.6,1.4,2.4,3.4,2.4,6s-0.3,5.2-1,7.9s-1.2,4.6-1.5,5.7s-0.5,2.1-0.5,2.8
		c0,0.7,0.3,1.1,0.8,1.1c0.7,0,1.6-0.4,2.6-1.3s2.1-1.9,3.1-2.9s2-2,2.8-2.9c0.9-0.9,1.5-1.3,1.8-1.3c0.7,0,1,0.8,1,2.4
		c0,3.3-1.6,6.4-4.8,9.5c-5.4,3.2-8.9,4.8-10.4,4.8c-0.1,0-0.2,0-0.3-0.1c-3.7,0-5.6-3-5.6-9c0-2.6,0.2-4.9,0.7-7.1
		c0.5-2.1,0.9-3.7,1.1-4.7C202.9,80.6,203,79.5,203,78.5z"/>
</g>
<g>
	<path class="st0" d="M83.8,116c-2.7,0-4-0.7-4-2.1c0-1.3,1.3-1.9,3.9-1.9c0.6,0,1.2,0.1,1.8,0.2c0.9-0.9,1.4-2.3,1.4-4.2
		c0-3.2-2.2-4.9-6.5-4.9c-2.3,0-4.4,0.5-6.5,1.5c-0.8,0.4-1.4,0.7-2,1s-1.2,0.5-1.7,0.5s-0.8-0.2-0.8-0.5c0-0.4,0.3-0.9,0.8-1.6
		s1.3-1.4,2.4-2.2c2.6-1.8,5.5-2.7,8.8-2.7c4.3,0,7.4,0.9,9.4,2.6c1.7,1.4,2.6,3.4,2.6,5.8c0,2.9-1.4,5-4.2,6.6
		c2.7,1.5,4.3,3.4,4.8,5.7c0.2,0.8,0.3,1.8,0.3,3.1c0,1.3-0.4,2.5-1.1,3.7c-0.7,1.1-1.6,2.1-2.8,2.9c-2.4,1.5-5.4,2.3-9,2.3
		c-2.6,0-5.5-0.6-8.7-1.8c-2.1-0.8-3.7-1.7-4.7-2.8c-0.5-0.5-0.7-1.1-0.7-1.6s0.3-0.8,0.8-0.8s1.5,0.2,3,0.5l0,0
		c0-2.2,0.3-4.4,0.8-6.7c0.9-4,1.9-7.1,3-9.4c1.2-2.5,2.5-3.8,3.8-3.8c0.4,0,0.5,0.6,0.5,1.9s-0.1,2.5-0.4,3.9
		c-0.2,1.3-0.5,2.6-0.8,3.9s-0.5,2.4-0.8,3.5c-0.2,1-0.4,1.8-0.4,2.2l-0.4,6.3c1.7,0.4,3.1,0.7,4.2,0.7s2.2-0.2,3.1-0.6
		c2.3-1,3.5-2.7,3.5-5.1c0-1.5-0.1-2.7-0.4-3.6c-0.3-1-0.8-1.8-1.5-2.5C84.8,115.9,84.2,116,83.8,116z"/>
	<path class="st0" d="M110.7,113c0-1.9,1.5-2.8,4.4-2.8c0.7,0,1.2,0.2,1.4,0.7c0.2,0.5,0.3,1.2,0.3,2.2c0,1.4-0.3,3.5-0.9,6.4
		s-0.9,4.8-0.9,5.8c0,0.5,0.2,0.7,0.5,0.7c0.4,0,0.9-0.3,1.6-0.8c0.6-0.5,1.2-1.1,1.8-1.7c0.6-0.6,1.2-1.2,1.7-1.7s0.9-0.8,1.1-0.8
		c0.4,0,0.6,0.5,0.6,1.4c0,2-1,3.9-2.9,5.7c-3.2,1.9-5.3,2.9-6.2,2.9c-0.1,0-0.2,0-0.2,0c-1.1,0-1.8-0.3-2.2-1
		c-0.4-0.7-0.7-1.6-0.8-2.6c-0.6,1-1.3,1.9-2.3,2.7c-1,0.7-2.1,1.1-3.4,1.1c-2.2,0-3.9-0.4-5.1-1.3c-1.2-0.8-1.8-2.1-1.8-3.7
		c0-0.7,0.1-1.4,0.3-2c0.2-0.6,0.6-1.4,1-2.3l1.2-10.3c0.9-0.7,2.1-1,3.7-1c1.3,0,2,0.8,2.2,2.5c0.1,1.4,0.1,2.6-0.2,3.7
		c-0.3,1.1-0.6,2.4-1.1,4.1c-0.4,1.6-0.7,3.1-0.7,4.3c0,1,0.6,1.5,1.9,1.5c1.4,0,2.6-1.2,3.6-3.6c0.8-1.8,1.3-3.9,1.6-6.2
		c0-0.2,0-0.5-0.1-0.9c0-0.3,0-0.7,0-1s0-0.7,0-1L110.7,113L110.7,113z"/>
	<path class="st0" d="M145.8,120.8c0.5,0,0.8,0.6,0.8,1.9c0,0.7-0.3,1.5-0.9,2.5c-0.6,1-1.4,1.9-2.3,2.7c-0.9,0.8-2,1.5-3.1,2
		s-2.3,0.8-3.4,0.8c-1.5,0-2.5-1.3-3-3.8c-1.7,2.7-4.2,4-7.5,4c-2,0-3.6-0.6-4.8-1.8c-1.2-1.2-1.8-2.7-1.8-4.5
		c0-4.8,1.6-8.5,4.7-11.3c2.2-1.9,4.5-2.8,6.8-2.8c1.1,0,1.9,0.1,2.5,0.3l1,0.3c1.1-5.4,2.5-9,4-10.8c0.5-0.6,1-0.9,1.5-0.9
		c0.8,0,1.6,0.6,2.3,1.7c0.6,0.9,0.9,1.7,0.9,2.4c0,0.7-0.1,1.3-0.3,2c-0.2,0.6-0.4,1.2-0.7,1.8s-0.6,1.1-1,1.6s-0.7,1-1.1,1.6
		c-0.8,3-1.4,6.4-1.8,10.2c-0.1,1.1-0.2,1.9-0.2,2.6c0,1.9,0.3,2.9,1,2.9s2.5-1.5,5.3-4.4C145.3,121.1,145.6,120.8,145.8,120.8z
		 M126,123.3c0,2.2,0.8,3.2,2.4,3.2c1,0,1.9-0.4,2.9-1.1s1.7-1.9,2.2-3.7c0.1-2.5,0.3-5.3,0.9-8.3c-2.2,0.4-4.2,1.5-5.9,3.3
		C126.9,118.5,126,120.7,126,123.3z"/>
	<path class="st0" d="M170.3,120.8c0.5,0,0.8,0.6,0.8,1.9c0,0.7-0.3,1.5-0.9,2.5c-0.6,1-1.4,1.9-2.3,2.7c-0.9,0.8-2,1.5-3.1,2
		s-2.3,0.8-3.4,0.8c-1.5,0-2.5-1.3-3-3.8c-1.7,2.7-4.2,4-7.5,4c-2,0-3.6-0.6-4.8-1.8c-1.2-1.2-1.8-2.7-1.8-4.5
		c0-4.8,1.6-8.5,4.7-11.3c2.2-1.9,4.5-2.8,6.8-2.8c1.1,0,1.9,0.1,2.5,0.3l1,0.3c1.1-5.4,2.5-9,4-10.8c0.5-0.6,1-0.9,1.5-0.9
		c0.8,0,1.6,0.6,2.3,1.7c0.6,0.9,0.9,1.7,0.9,2.4c0,0.7-0.1,1.3-0.3,2c-0.2,0.6-0.4,1.2-0.7,1.8s-0.6,1.1-1,1.6s-0.7,1-1.1,1.6
		c-0.8,3-1.4,6.4-1.8,10.2c-0.1,1.1-0.2,1.9-0.2,2.6c0,1.9,0.3,2.9,1,2.9s2.5-1.5,5.3-4.4C169.7,121.1,170.1,120.8,170.3,120.8z
		 M150.5,123.3c0,2.2,0.8,3.2,2.4,3.2c1,0,1.9-0.4,2.9-1.1s1.7-1.9,2.2-3.7c0.1-2.5,0.3-5.3,0.9-8.3c-2.2,0.4-4.2,1.5-5.9,3.3
		C151.3,118.5,150.5,120.7,150.5,123.3z"/>
	<path class="st0" d="M180.2,127.7c-1.4,1.9-3.3,2.9-5.6,2.9c-1.9,0-3.4-0.4-4.6-1.2c-1.1-0.8-1.7-2.1-1.7-3.8c0-0.7,0.1-1.4,0.3-2
		s0.6-1.4,1-2.3l1.2-10c0.9-0.7,2-1,3.5-1c1.3,0,2,0.8,2.1,2.5c0.1,0.5,0.1,1.1,0.1,1.8c0,0.7-0.1,1.4-0.3,2.2
		c-1.1,3.9-1.7,6.5-1.6,7.8c0,1,0.6,1.5,1.8,1.5s2-0.4,2.6-1.1s1-1.7,1.4-2.8c0.7-3.1,1.4-5.7,2-7.7s1-3.2,1.2-3.6
		c0.3-0.7,0.8-1,1.6-1s1.5,0.6,2.2,1.7s1,1.9,1,2.5c-0.1,2-1.3,6.9-3.7,14.8c1.8-1.4,3.6-3.2,5.4-5.3c0.6-0.7,1.1-1.3,1.6-1.8
		c0.4-0.5,0.8-0.7,1-0.7c0.4,0,0.6,0.4,0.6,1.3c0,1.8-1,3.8-3,6.2c-2,2.4-4.4,4.2-7.2,5.5c-0.3,1.1-0.7,2.2-1.1,3.2
		c-0.4,1-0.9,1.9-1.5,2.6c-1.3,1.6-3.4,2.4-6.1,2.4c-1.8,0-3.4-0.5-4.7-1.6s-2-2.4-2-4c0-0.9,0.3-1.6,0.9-2.1c0.6-0.5,1.4-1,2.5-1.3
		c1.1-0.4,2.3-0.7,3.7-0.9c1.4-0.3,2.9-0.6,4.5-1C179.8,129.6,180.1,128.4,180.2,127.7z M174.5,139c1.3,0,2.5-1.1,3.6-3.4
		c-1,0.2-1.9,0.3-2.7,0.4c-0.8,0.1-1.5,0.2-2,0.3c-1.1,0.2-1.7,0.5-1.6,0.9c0,0.5,0.3,1,0.9,1.3C173.3,138.9,173.9,139,174.5,139z"
		/>
</g>
</svg>
